<svg xmlns="http://www.w3.org/2000/svg" viewBox="0 0 727.27 672.28">
  <path d="M27.6 20.468l33.291 176.56c-25.782 43.408-40.424 93.001-40.424 145.65 0 170.698 153.612 309.13 343.014 309.13s343.314-138.432 343.314-309.13c0-51.001-14.048-99.068-38.344-141.488l33.29-176.267-140.3 65.096c-55.923-35.652-124.3-56.773-197.964-56.773-71.515 0-137.92 19.725-192.909 53.503L27.634 20.468z" stroke-linejoin="round" stroke="#fff" stroke-linecap="round" stroke-width="40.9398"/>
  <path d="M27.6 20.468l33.291 176.56c-25.782 43.408-40.424 93.001-40.424 145.65 0 170.698 153.612 309.13 343.014 309.13s343.314-138.432 343.314-309.13c0-51.001-14.048-99.068-38.344-141.488l33.29-176.267-140.3 65.096c-55.923-35.652-124.3-56.773-197.964-56.773-71.515 0-137.92 19.725-192.909 53.503L27.634 20.468z" stroke-linejoin="round" stroke="#000" stroke-linecap="round" stroke-width="27.1430874" fill="currentColor"/>
  <path d="M203.457 460.98c4.913 37.194 27.016 75.295 76.094 76.094 65.228 1.077 118.616-69.994 134.296-119.729-35.881-5.191-71.76-4.908-107.645-1.597 15.686 47.343 71.072 120.445 125.529 121.325 52.244.845 70.198-33.504 76.093-76.093" stroke-linejoin="round" stroke="#000" stroke-linecap="round" stroke-width="19.023360399999998" fill="none"/>
  <path d="M298.659 311.96c-13.149 29.225-47.5 42.257-76.724 29.109s-42.257-47.5-29.109-76.724 47.5-42.257 76.724-29.108 42.257 47.5 29.109 76.724z"/>
  <path d="M283.686 294.838c-5.209 11.575-18.815 16.737-30.39 11.53s-16.739-18.815-11.53-30.391 18.814-16.738 30.39-11.53 16.738 18.815 11.53 30.39z" fill="#fff"/>
  <path d="M536.86 311.476c-13.148 29.224-47.5 42.257-76.724 29.108s-42.257-47.5-29.108-76.724 47.5-42.256 76.724-29.108 42.256 47.5 29.108 76.724z"/>
  <path d="M521.887 294.351c-5.208 11.576-18.815 16.738-30.39 11.53s-16.738-18.815-11.53-30.39 18.814-16.739 30.39-11.53 16.738 18.814 11.53 30.39z" fill="#fff"/>
</svg>
